<svg width="144" height="119" viewBox="0 0 144 119" fill="none" xmlns="http://www.w3.org/2000/svg">
<path d="M13.8585 118.267C22.5896 118.267 26.8758 110.647 26.8758 98.5821V71.4363C26.8758 70.9601 26.5583 70.6426 26.0821 70.6426H16.5572C16.081 70.6426 15.7635 70.9601 15.7635 71.4363V96.0422C15.7635 101.44 16.081 103.98 13.8585 103.98C11.6361 103.98 12.1123 101.598 12.1123 96.0422V22.2246C12.1123 16.6685 11.6361 14.2873 13.8585 14.2873C16.081 14.2873 15.7635 16.6685 15.7635 22.2246V45.7192C15.7635 46.1955 16.081 46.513 16.5572 46.513H26.0821C26.5583 46.513 26.8758 46.1955 26.8758 45.7192V19.6847C26.8758 7.61987 22.5896 0 13.8585 0C5.12743 0 1 7.46113 1 19.6847V98.5821C1 110.647 5.12743 118.267 13.8585 118.267Z" fill="black"/>
<path d="M30.7837 117.473H55.3896C55.8658 117.473 56.1833 117.156 56.1833 116.679V104.773C56.1833 104.138 56.0246 103.98 55.3896 103.98H41.1023V1.58747C41.1023 1.11123 40.6261 0.793735 40.3086 0.793735H30.7837C30.3075 0.793735 29.99 1.11123 29.99 1.58747V116.679C29.99 117.156 30.3075 117.473 30.7837 117.473Z" fill="black"/>
<path d="M71.8385 118.267C79.4584 118.267 84.8558 112.393 84.8558 98.1059V1.58747C84.8558 1.11123 84.5383 0.793735 84.0621 0.793735H74.5372C74.061 0.793735 73.7435 1.11123 73.7435 1.58747V95.5659C73.7435 102.075 73.9023 103.98 71.9973 103.98C70.0923 103.98 70.0923 102.075 70.0923 95.5659V1.58747C70.0923 1.11123 69.7748 0.793735 69.2986 0.793735H59.7737C59.2975 0.793735 58.98 1.11123 58.98 1.58747V98.5821C58.98 112.234 63.5837 118.267 71.8385 118.267Z" fill="black"/>
<path d="M114.005 50.0054V17.9385C114.005 6.98488 108.29 0.793735 98.6061 0.793735H88.7637C88.4462 0.793735 87.97 1.11123 87.97 1.58747V116.679C87.97 117.156 88.4462 117.473 88.7637 117.473H98.6061C109.083 117.473 114.005 111.917 114.005 100.805V68.1026C114.005 63.499 112.576 60.6415 110.036 58.7365C112.576 56.8316 114.005 53.8154 114.005 50.0054ZM102.892 46.8305C102.892 50.4817 101.94 52.0691 99.0823 52.0691V14.2873C101.94 14.2873 102.892 15.8747 102.892 19.5259V46.8305ZM102.892 98.8996C102.892 102.392 101.94 103.98 99.0823 103.98V65.5627C101.94 65.5627 102.892 67.4676 102.892 70.9601V98.8996Z" fill="black"/>
<path d="M129.819 118.267C138.391 118.267 142.677 110.647 142.836 98.5821L142.995 79.0562C143.153 63.1815 139.82 58.5778 134.105 52.8629C128.072 46.8305 128.072 43.4968 128.072 34.6069V25.5583C128.072 16.5097 127.914 14.2873 129.977 14.2873C131.882 14.2873 131.882 16.8272 131.882 25.5583V41.9093C131.882 42.5443 132.2 42.8618 132.835 42.8618H142.201C142.677 42.8618 142.995 42.5443 142.995 41.9093V19.6847C142.995 7.30238 138.708 0 129.977 0C121.246 0 116.801 7.30238 116.801 19.6847V39.0519C116.801 52.3866 118.547 55.4028 125.691 62.864C131.565 69.0551 131.724 70.6426 131.724 80.8024V92.7085C131.724 101.598 131.882 103.98 129.819 103.98C127.914 103.98 127.914 101.598 127.914 92.7085V72.7063C127.914 72.2301 127.596 71.7538 127.12 71.7538H117.754C117.119 71.7538 116.801 72.2301 116.801 72.7063V98.5821C116.801 110.647 121.087 118.267 129.819 118.267Z" fill="black"/>
</svg>
