<svg width="1488" height="347" viewBox="0 0 1488 347" fill="none" xmlns="http://www.w3.org/2000/svg">
<path fill-rule="evenodd" clip-rule="evenodd" d="M0 346.953H29.1184V30.599H30.1055L213.699 346.953H247.26L431.347 30.599H432.334V346.953H434.309H461.453H717.596H772.872H1026.55H1055.67H1056.16V30.599H1056.65L1240.25 346.953H1273.81L1457.89 30.599H1458.88V346.953H1488V0H1443.09L1257.52 318.822H1257.03L1071.46 0H1056.16H1026.55H767.936H722.531H461.453H434.309H416.541L230.973 318.822H230.48L44.9114 0H0V346.953ZM1026.55 26.6507H767.936H722.531H462.934V153.982H742.273H748.195H1026.55V26.6507ZM1026.55 180.139H748.195H742.273H462.934V320.796H717.596H772.872H1026.55V180.139Z" fill="black"/>
</svg>
