<?xml version="1.0" standalone="no"?>
<!DOCTYPE svg PUBLIC "-//W3C//DTD SVG 20010904//EN"
 "http://www.w3.org/TR/2001/REC-SVG-20010904/DTD/svg10.dtd">
<svg version="1.0" xmlns="http://www.w3.org/2000/svg"
 width="380.000000pt" height="380.000000pt" viewBox="0 0 380.000000 380.000000"
 preserveAspectRatio="xMidYMid meet">
<metadata>
Created by potrace 1.14, written by Peter Selinger 2001-2017
</metadata>
<g transform="translate(0.000000,380.000000) scale(0.100000,-0.100000)"
fill="#000000" stroke="none">
<path d="M0 2030 l0 -560 560 0 560 0 0 100 0 100 -457 2 -458 3 -2 128 c-2
97 0 127 10 126 6 -1 213 -1 460 0 l447 1 0 330 0 330 -560 0 -560 0 0 -560z
m919 230 l0 -129 -360 0 -359 -1 1 130 0 130 359 0 359 0 0 -130z"/>
<path d="M1200 1900 l0 -690 100 0 100 0 1 68 c0 37 1 94 2 127 l2 60 458 3
457 2 0 560 0 560 -560 0 -560 0 0 -690z m919 130 l-1 -360 -356 2 -357 3 -2
357 -2 357 359 1 359 0 0 -360z"/>
<path d="M2400 2030 l0 -560 100 0 100 0 1 93 c0 50 0 257 0 460 l0 367 199 0
200 0 0 -460 0 -460 100 0 100 0 0 460 0 460 200 0 200 0 0 -460 0 -460 100 0
100 0 0 560 0 560 -700 0 -700 0 0 -560z"/>
</g>
</svg>
